<?xml version="1.0" standalone="no"?>
<!DOCTYPE svg PUBLIC "-//W3C//DTD SVG 20010904//EN"
 "http://www.w3.org/TR/2001/REC-SVG-20010904/DTD/svg10.dtd">
<svg version="1.0" xmlns="http://www.w3.org/2000/svg"
 width="32px" height="32px" viewBox="0 0 728.000000 728.000000"
 preserveAspectRatio="xMidYMid meet">

<g transform="translate(0.000000,728.000000) scale(0.100000,-0.100000)"
fill="#000000" stroke="none">
<path d="M4562 6528 c-9 -9 -12 -109 -12 -389 0 -247 -4 -380 -10 -384 -6 -4
-39 10 -74 29 -68 38 -106 44 -146 22 -124 -67 -468 -271 -477 -283 -10 -13
-13 -92 -13 -318 0 -226 3 -305 13 -317 6 -9 55 -41 107 -71 231 -132 296
-170 305 -177 31 -24 92 -52 114 -52 14 0 63 20 109 46 45 25 117 66 160 90
42 24 122 70 177 102 l100 60 3 724 c2 611 0 727 -12 745 -8 12 -45 38 -83 58
-37 20 -104 56 -148 81 -86 50 -95 52 -113 34z m-60 -1196 l48 -27 0 -101 0
-100 -87 -53 -88 -52 -40 22 c-22 12 -64 37 -92 56 l-53 33 0 94 c0 64 4 97
13 104 7 6 48 31 92 56 l79 45 40 -25 c23 -13 62 -37 88 -52z"/>
<path d="M1374 5797 c-39 -24 -106 -63 -150 -87 -148 -81 -294 -171 -295 -183
-4 -71 -6 -582 -1 -679 5 -117 7 -128 24 -128 20 0 101 42 225 116 123 74 113
50 113 263 0 102 3 196 6 209 4 13 23 31 43 41 20 10 57 30 83 45 l48 28 75
-42 c41 -23 82 -51 90 -63 12 -17 15 -58 15 -212 0 -104 4 -195 8 -201 10 -14
180 -116 280 -167 79 -40 77 -54 80 379 1 250 -1 388 -8 404 -11 25 -42 48
-145 104 -31 17 -128 73 -216 124 -88 50 -170 92 -182 92 -13 0 -55 -19 -93
-43z"/>
<path d="M5685 5766 c-318 -184 -368 -214 -386 -229 -18 -16 -19 -30 -17 -330
l3 -312 45 -29 c81 -51 455 -263 476 -270 15 -5 40 4 80 27 33 19 105 60 161
91 56 31 105 61 108 66 9 15 -11 45 -42 60 -15 8 -64 35 -108 60 -44 26 -144
84 -222 130 l-143 82 0 102 0 102 48 26 c26 14 66 37 89 50 38 21 45 22 65 9
13 -8 37 -21 53 -30 17 -8 32 -17 35 -20 3 -4 17 -12 33 -18 26 -12 27 -15 27
-88 0 -77 11 -115 33 -115 15 0 231 121 235 132 2 4 9 8 16 8 6 0 28 11 49 25
l37 26 0 103 c0 111 1 109 -60 144 -19 11 -89 51 -155 89 -66 39 -160 93 -209
121 -49 29 -101 52 -115 52 -14 0 -75 -29 -136 -64z"/>
</g>
</svg>
