<?xml version="1.0" standalone="no"?>
<!DOCTYPE svg PUBLIC "-//W3C//DTD SVG 20010904//EN"
 "http://www.w3.org/TR/2001/REC-SVG-20010904/DTD/svg10.dtd">
<svg version="1.0" xmlns="http://www.w3.org/2000/svg"
 width="32px" height="32px" viewBox="0 0 1000.000000 1000.000000"
 preserveAspectRatio="xMidYMid meet">

<g transform="translate(0.000000,1000.000000) scale(0.100000,-0.100000)"
fill="#000000" stroke="none">
<path d="M4265 9985 c-100 -14 -221 -43 -305 -72 -62 -21 -170 -63 -189 -73
-9 -4 -68 -34 -131 -65 -63 -31 -124 -62 -135 -69 -48 -28 -170 -109 -175
-115 -3 -4 -15 -14 -27 -22 -123 -84 -331 -302 -428 -449 -17 -25 -32 -47 -35
-50 -23 -23 -190 -353 -190 -375 0 -4 -6 -21 -14 -38 -7 -18 -19 -48 -26 -67
-7 -19 -16 -44 -21 -55 -10 -25 -36 -119 -55 -205 -8 -36 -19 -84 -24 -108
-31 -130 -36 -494 -10 -647 22 -131 63 -287 90 -350 5 -11 15 -40 21 -65 7
-25 16 -49 21 -54 15 -18 9 -64 -9 -71 -10 -3 -58 -13 -108 -20 -234 -37 -281
-47 -341 -76 -96 -45 -161 -135 -189 -261 -44 -193 -43 -390 5 -878 10 -113
24 -254 30 -315 14 -155 18 -174 52 -262 48 -125 60 -173 53 -228 -3 -27 -5
-73 -5 -100 1 -30 -5 -58 -14 -70 -10 -13 -15 -43 -16 -81 l0 -61 88 -93 c48
-51 91 -102 95 -114 19 -48 51 -709 38 -794 -4 -28 -22 -63 -54 -107 -87 -117
-95 -189 -34 -295 31 -54 32 -58 32 -180 0 -69 -3 -136 -8 -150 -4 -14 -27
-46 -51 -73 -23 -26 -49 -65 -56 -87 -16 -48 -8 -71 61 -166 62 -87 114 -188
106 -208 -4 -10 -18 -16 -35 -16 -42 0 -72 -34 -126 -140 -72 -143 -176 -343
-240 -460 -112 -208 -139 -270 -134 -314 6 -51 58 -162 113 -241 42 -60 201
-213 409 -396 22 -19 53 -47 71 -64 17 -16 63 -57 101 -90 57 -50 109 -96 180
-160 6 -5 41 -37 79 -70 37 -33 77 -69 89 -80 11 -11 50 -44 85 -73 51 -42 71
-52 101 -52 39 0 166 39 665 206 561 187 641 218 672 258 26 32 83 205 90 271
l5 50 -101 94 c-82 76 -101 98 -101 122 0 15 6 32 13 36 33 20 60 89 64 163 5
67 2 79 -20 111 -32 47 -43 99 -67 309 -21 180 -51 405 -69 520 -6 36 -11 75
-11 88 0 21 1 22 28 8 15 -8 84 -56 152 -108 69 -52 147 -104 173 -117 44 -22
53 -22 115 -12 125 20 417 87 657 151 170 45 215 52 243 40 15 -6 50 -42 77
-81 28 -39 55 -76 61 -82 6 -7 17 -23 24 -37 7 -13 17 -29 21 -34 53 -66 99
-138 99 -154 0 -5 -19 -13 -42 -20 -46 -12 -62 -31 -152 -177 -123 -198 -270
-430 -276 -435 -3 -3 -20 -27 -38 -55 -17 -27 -35 -54 -39 -60 -5 -5 -23 -32
-40 -60 -18 -27 -37 -55 -42 -61 -22 -27 -41 -76 -41 -107 0 -22 19 -72 50
-133 59 -115 99 -158 235 -249 33 -22 62 -42 65 -45 3 -3 43 -31 90 -62 82
-55 162 -109 340 -233 47 -32 101 -69 120 -82 19 -12 40 -26 45 -30 61 -47
147 -107 306 -215 31 -21 63 -38 70 -38 8 0 52 14 99 31 47 16 99 34 115 39
17 6 39 14 50 20 11 5 38 16 60 23 22 8 117 42 210 77 188 69 292 106 345 122
19 5 40 13 45 18 6 4 24 10 40 14 40 10 146 52 221 87 70 34 84 55 134 207 32
99 37 141 18 175 -9 17 -96 135 -141 192 -55 69 -208 287 -269 385 -26 41 -51
80 -55 85 -22 27 -83 156 -83 174 0 22 38 43 101 56 79 16 681 211 761 247 42
19 48 27 67 77 17 48 35 110 58 209 3 13 0 35 -8 50 -12 24 -145 209 -160 222
-3 3 -21 27 -40 55 -18 27 -38 55 -44 62 -5 6 -41 57 -80 112 -38 56 -97 139
-130 185 -33 46 -67 94 -75 106 -8 12 -34 48 -57 81 -42 58 -56 111 -35 135 5
5 26 59 47 119 21 61 41 115 45 120 4 6 11 21 15 35 8 29 39 103 58 140 7 14
33 35 57 47 24 12 47 30 51 40 9 27 -17 157 -79 393 -11 41 -39 147 -62 235
-22 88 -50 194 -61 235 -11 41 -30 118 -43 170 -38 153 -96 363 -106 385 -5
11 -25 79 -45 150 -20 72 -45 159 -56 195 -32 101 -34 127 -12 138 10 5 61 24
113 41 122 40 136 48 159 86 57 97 105 769 81 1143 -6 95 -15 192 -19 215 -29
145 -43 204 -51 222 -5 11 -14 38 -20 60 -13 46 -30 85 -71 170 -46 93 -61
117 -116 186 -93 117 -190 189 -285 215 -57 14 -135 4 -310 -41 -115 -30 -134
-31 -143 -7 -8 20 -37 123 -66 232 -11 41 -24 84 -29 95 -20 42 -71 265 -68
296 3 29 8 34 63 55 l60 22 -1 58 c0 64 -41 250 -65 299 l-14 30 -123 5 c-140
6 -123 -5 -212 122 -167 237 -506 619 -579 654 -26 13 -75 19 -176 24 -129 6
-145 9 -205 38 -107 50 -183 73 -360 108 -110 22 -564 28 -695 9z m915 -162
c30 -10 54 -22 53 -28 -1 -5 -23 -15 -50 -21 -128 -31 -191 -72 -179 -118 4
-15 24 -46 46 -69 85 -92 102 -115 140 -194 22 -44 40 -87 40 -95 0 -8 4 -18
9 -24 12 -11 31 -115 31 -165 0 -36 -2 -39 -37 -48 -21 -5 -90 -14 -153 -20
-63 -7 -133 -16 -155 -21 -22 -5 -68 -14 -102 -21 -35 -6 -70 -20 -79 -30 -15
-17 -13 -25 26 -126 23 -59 47 -121 55 -138 7 -16 25 -59 38 -95 14 -36 30
-78 37 -95 37 -88 70 -194 70 -223 l0 -33 -56 3 c-38 2 -60 8 -65 18 -19 35
-40 95 -89 250 -29 91 -56 174 -61 185 -4 11 -14 40 -20 65 -7 25 -16 50 -19
55 -4 6 -13 27 -19 47 -19 59 -30 63 -113 43 -40 -10 -89 -23 -108 -30 -19 -7
-102 -34 -185 -60 -330 -105 -748 -247 -820 -279 -90 -41 -144 -69 -180 -94
-37 -26 -40 -32 -43 -81 -2 -30 2 -83 8 -120 59 -348 78 -452 90 -479 6 -13
10 -40 10 -61 0 -33 -4 -39 -35 -54 -48 -23 -60 -21 -83 8 -27 34 -62 213 -82
410 -22 224 -28 267 -39 278 -8 8 -36 -2 -103 -37 -51 -26 -100 -51 -108 -56
-73 -44 -234 -130 -242 -130 -5 0 -6 23 -2 53 13 94 97 413 115 432 5 5 9 16
9 25 0 18 134 290 147 299 5 3 27 32 48 65 86 125 90 131 181 223 59 59 89 80
180 125 61 29 126 59 145 67 18 8 57 25 86 38 28 12 55 23 60 23 4 1 26 9 48
20 22 11 44 19 48 20 5 0 23 6 40 14 49 22 163 66 171 66 5 0 22 6 39 14 18 8
59 22 92 31 33 9 69 20 80 25 36 16 248 71 370 96 39 7 89 19 111 25 73 19
366 48 459 44 51 -2 114 -11 145 -22z m441 -170 c118 -38 259 -228 259 -349 0
-48 -3 -56 -24 -65 -32 -15 -87 -4 -121 23 -26 20 -27 25 -21 78 6 54 5 58
-19 74 -22 15 -25 23 -25 76 0 68 -12 82 -89 99 -34 7 -58 5 -113 -9 -68 -18
-70 -18 -89 1 -31 31 -22 60 21 78 41 16 163 13 221 -6z m-186 -633 c18 -7
106 -6 269 2 250 12 410 4 442 -23 17 -14 18 -51 2 -67 -9 -9 -97 -12 -334
-12 -221 0 -325 -3 -330 -11 -3 -6 2 -25 11 -44 26 -47 15 -62 -52 -74 -32 -6
-74 -16 -94 -21 -65 -18 -187 -24 -203 -11 -19 16 -77 177 -70 194 6 17 55 34
165 57 100 21 158 24 194 10z m157 -365 c20 -49 37 -102 37 -117 1 -24 -4 -29
-41 -38 -24 -5 -56 -14 -73 -19 -46 -15 -216 -43 -229 -38 -7 3 -25 36 -40 73
-16 38 -35 82 -42 98 -31 65 -19 76 101 101 44 9 96 20 115 25 19 4 57 7 85 7
l50 -2 37 -90z m963 -431 c8 -19 16 -58 17 -87 l3 -51 -40 -8 c-22 -4 -116
-17 -210 -28 -320 -38 -584 -77 -810 -119 -60 -12 -146 -28 -190 -36 -133 -25
-616 -140 -650 -155 -11 -5 -40 -14 -65 -20 -25 -6 -56 -15 -70 -20 -14 -4
-65 -20 -115 -35 -76 -23 -188 -60 -425 -140 -25 -9 -61 -22 -80 -30 -19 -7
-73 -28 -120 -45 -47 -17 -99 -38 -117 -46 -17 -8 -34 -14 -38 -14 -4 0 -21
-6 -38 -14 -18 -8 -66 -29 -107 -46 -75 -32 -92 -39 -185 -80 -27 -12 -66 -29
-85 -37 -19 -9 -103 -49 -186 -89 -127 -63 -159 -74 -202 -74 -28 0 -62 4 -76
10 -38 14 -35 53 7 81 17 13 34 26 37 29 3 3 28 20 55 38 28 17 55 35 60 40
11 9 99 60 213 124 96 55 355 181 505 247 26 12 66 30 90 40 23 10 119 49 212
86 94 36 179 70 190 75 11 5 45 16 75 26 30 9 60 20 65 24 6 3 30 12 55 19 25
6 54 16 65 21 11 5 67 23 125 40 58 17 115 35 126 40 12 5 75 22 140 39 66 18
142 38 169 45 364 101 975 179 1437 184 l148 2 15 -36z m77 -226 c11 -8 30
-70 53 -163 19 -82 40 -166 45 -185 6 -19 17 -64 26 -100 37 -156 76 -305 134
-515 72 -264 158 -581 189 -700 84 -319 105 -398 141 -530 23 -82 52 -190 65
-240 13 -49 33 -123 44 -162 49 -170 60 -211 76 -268 9 -33 20 -69 25 -80 5
-11 16 -45 24 -75 8 -30 24 -84 35 -120 11 -36 29 -94 40 -130 11 -36 29 -96
41 -135 12 -38 32 -108 45 -155 13 -47 33 -119 45 -160 12 -41 30 -111 41
-155 11 -44 29 -116 40 -160 28 -114 37 -163 29 -174 -8 -14 -93 -43 -250 -88
-69 -19 -156 -44 -195 -55 -38 -11 -101 -28 -140 -38 -38 -10 -146 -39 -240
-65 -93 -25 -192 -52 -220 -59 -27 -8 -126 -35 -220 -61 -93 -26 -201 -55
-240 -65 -38 -11 -104 -29 -145 -40 -83 -24 -168 -47 -310 -84 -52 -13 -129
-34 -170 -46 -41 -11 -106 -29 -145 -40 -38 -10 -136 -37 -217 -59 -82 -23
-213 -59 -293 -81 -80 -22 -211 -58 -292 -81 -82 -22 -188 -51 -238 -64 -49
-13 -124 -34 -165 -45 -248 -70 -352 -94 -368 -84 -16 10 -25 40 -72 224 -48
188 -126 484 -156 590 -14 52 -36 139 -47 192 -21 94 -21 97 -3 117 10 11 35
26 55 32 20 6 41 15 46 18 6 4 51 25 101 46 50 21 102 46 115 56 21 16 22 20
12 60 -21 84 -62 235 -82 307 -47 164 -61 213 -95 342 -20 74 -40 142 -45 150
-4 8 -13 40 -20 70 -7 30 -16 64 -21 75 -5 11 -30 99 -56 195 -25 96 -49 183
-51 193 -7 23 -20 22 -55 -8 -39 -33 -53 -32 -68 8 -6 17 -16 40 -21 49 -12
23 -12 83 0 106 23 41 71 151 87 197 23 65 31 308 14 431 -30 231 -109 402
-248 542 -84 85 -108 105 -207 172 -97 67 -108 77 -102 94 5 13 206 118 277
146 32 12 72 29 155 65 95 42 136 59 193 80 34 14 77 31 95 39 17 8 93 38 167
66 74 28 149 57 165 65 55 24 212 75 233 75 21 0 32 -27 63 -155 6 -27 17 -56
25 -64 14 -16 28 -13 189 42 55 19 145 47 200 62 55 15 109 31 120 36 11 5 47
15 80 23 33 8 107 26 165 41 455 114 721 162 1140 204 91 9 171 20 178 24 13
9 7 72 -8 92 -5 6 -14 38 -20 73 -10 47 -10 66 -2 74 10 10 72 19 178 27 11 0
28 -5 36 -11z m600 -137 c41 -26 116 -107 158 -171 8 -12 23 -32 32 -45 25
-32 101 -189 126 -260 35 -98 61 -212 80 -345 31 -229 19 -950 -20 -1153 -12
-64 -34 -87 -81 -87 l-29 0 5 63 c2 34 11 127 20 207 28 256 37 392 37 523 0
145 -34 471 -56 535 -7 23 -14 49 -14 57 0 37 -74 233 -127 336 -79 151 -144
237 -234 305 -64 50 -64 64 4 64 41 0 63 -6 99 -29z m-236 -56 c57 -24 130
-82 173 -138 23 -29 45 -57 51 -64 22 -26 95 -181 129 -273 66 -180 131 -523
131 -700 0 -119 -39 -592 -61 -734 -12 -78 -23 -106 -44 -106 -19 0 -25 11
-47 94 -11 39 -31 112 -44 161 -14 50 -33 119 -43 155 -10 36 -20 72 -24 80
-23 56 -39 195 -43 380 -2 113 -9 243 -14 290 -11 90 -48 258 -60 275 -4 6
-11 21 -15 35 -10 36 -107 232 -122 248 -7 7 -13 17 -13 22 0 5 -6 15 -13 22
-7 7 -28 38 -47 68 -19 30 -40 60 -46 67 -6 6 -17 25 -24 43 -16 40 -5 52 65
74 64 19 69 19 111 1z m-4104 -898 c47 -21 89 -58 151 -136 30 -38 147 -277
147 -301 0 -7 7 -26 14 -43 17 -38 42 -126 62 -217 7 -36 18 -85 23 -110 23
-104 45 -406 62 -845 12 -322 9 -496 -10 -519 -20 -23 -193 -66 -268 -66 l-33
0 0 78 c0 190 -21 777 -30 877 -25 242 -41 355 -65 455 -24 98 -84 290 -105
335 -5 11 -23 54 -41 95 -31 75 -117 240 -128 250 -15 13 -91 120 -91 129 0 6
17 13 38 16 20 3 51 10 67 14 61 18 152 12 207 -12z m-417 -74 c79 -50 173
-197 244 -383 18 -47 37 -94 42 -105 5 -11 22 -65 39 -120 17 -55 35 -114 41
-132 58 -182 104 -738 110 -1325 1 -122 -2 -138 -28 -138 -16 0 -134 -50 -143
-60 -3 -4 -20 -13 -37 -21 -18 -8 -33 -17 -33 -21 0 -5 -7 -8 -15 -8 -13 0
-15 20 -15 118 l1 117 19 -36 c26 -50 48 -67 61 -48 12 16 7 243 -14 695 -15
314 -16 317 -76 362 -17 12 -35 22 -41 22 -6 0 -10 -31 -10 -79 0 -103 -10
-173 -24 -168 -6 2 -27 62 -47 133 -32 115 -47 158 -79 229 -22 50 -38 146
-49 291 -9 123 -23 156 -73 173 -23 8 -37 8 -56 -2 -47 -22 -54 -49 -48 -199
3 -76 9 -145 14 -155 5 -10 12 -33 15 -50 8 -40 -16 -65 -97 -106 -87 -44 -88
-42 -105 183 -18 225 -22 443 -12 537 18 171 107 299 223 323 66 13 147 2 193
-27z m-253 -1340 c28 -30 70 -38 107 -19 l30 16 5 -32 c3 -18 5 -105 4 -193
-1 -88 1 -181 5 -206 10 -57 59 -114 139 -158 53 -30 57 -35 62 -74 9 -79 26
-392 36 -672 6 -154 15 -341 20 -415 5 -74 15 -220 20 -325 11 -184 26 -305
39 -305 3 0 19 14 35 31 32 31 41 35 122 43 l52 5 6 -39 c4 -27 12 -41 26 -45
19 -6 84 9 105 25 6 4 35 13 65 19 80 16 140 34 140 42 0 12 -60 27 -132 35
-38 3 -68 10 -68 14 0 4 16 15 35 24 19 9 35 19 35 21 0 2 -20 18 -45 35 -25
17 -52 41 -60 53 -15 23 -36 124 -61 297 -8 58 -21 120 -28 139 l-13 34 -17
-59 c-10 -32 -21 -68 -25 -78 -9 -23 -31 433 -31 625 0 160 -1 158 105 184
178 42 258 56 267 47 6 -6 14 -161 18 -389 15 -662 24 -822 51 -893 9 -21 42
-52 117 -108 9 -6 46 -34 82 -60 36 -27 94 -67 130 -90 36 -23 70 -45 76 -50
5 -5 21 -15 34 -22 36 -19 66 -51 78 -85 12 -31 42 -175 69 -325 8 -47 23
-132 33 -190 18 -104 53 -310 90 -530 54 -322 62 -350 101 -350 34 0 53 44 45
108 -11 101 -45 353 -66 502 -66 456 -76 564 -38 420 22 -86 52 -256 118 -655
31 -192 51 -288 66 -323 18 -45 18 -102 -2 -130 -19 -28 -21 -27 -88 3 -60 28
-65 28 -84 16 -11 -7 -10 -16 7 -49 23 -44 27 -77 11 -87 -17 -10 -86 31 -158
95 -44 39 -62 127 -162 785 -10 66 -26 172 -35 235 -21 143 -31 161 -81 150
-57 -13 -59 -19 -47 -112 12 -86 51 -334 83 -523 10 -60 28 -166 39 -235 41
-250 47 -272 86 -308 41 -38 49 -77 13 -67 -13 4 -34 13 -48 20 -14 7 -86 44
-160 82 -146 75 -230 100 -302 89 -61 -10 -79 -27 -85 -80 -7 -58 10 -66 72
-36 63 30 91 23 262 -65 79 -41 162 -80 185 -86 24 -7 48 -16 53 -20 31 -21
164 -40 243 -34 98 8 107 -4 27 -34 -68 -26 -84 -26 -232 -2 -65 11 -145 22
-179 26 -167 18 -340 -73 -308 -162 16 -45 46 -46 101 -5 26 20 54 42 61 49
33 32 136 27 387 -18 103 -18 219 -7 298 30 38 17 75 31 82 31 20 0 65 -58 65
-85 0 -35 -49 -157 -73 -184 -38 -40 -136 -79 -532 -208 -93 -30 -179 -59
-190 -63 -11 -5 -38 -14 -60 -20 -22 -6 -49 -15 -60 -20 -11 -4 -67 -22 -125
-40 -58 -17 -112 -35 -121 -40 -30 -16 -135 -33 -159 -27 -14 4 -47 27 -75 53
-87 81 -239 221 -266 245 -15 13 -60 53 -100 89 -39 36 -84 76 -99 90 -79 73
-151 140 -200 183 -318 283 -381 398 -304 552 16 33 56 112 88 175 32 63 70
140 85 170 16 30 51 98 79 150 108 203 93 187 197 211 54 13 60 17 57 38 -1
13 -8 37 -16 55 -54 121 -72 157 -99 201 -17 28 -34 52 -37 55 -14 12 -50 79
-50 93 0 8 14 25 31 38 73 56 97 81 102 107 3 15 1 95 -3 178 -7 114 -14 167
-31 215 -28 80 -29 164 -3 204 10 17 36 50 57 75 l39 45 -5 120 c-25 554 -40
797 -51 840 -12 50 -12 50 -55 51 -52 2 -77 24 -93 78 -6 23 -15 45 -20 51
-14 16 -9 33 17 61 18 20 23 33 18 48 -4 12 -6 30 -6 41 6 102 4 115 -26 195
-17 47 -35 92 -40 101 -28 49 -53 183 -58 304 l-5 130 42 -60 c23 -33 51 -70
62 -82z m1139 -1078 c10 -38 28 -106 40 -150 11 -44 29 -111 39 -150 44 -169
60 -228 99 -365 23 -80 51 -179 62 -220 11 -41 24 -84 29 -95 9 -19 21 -63 60
-210 10 -38 23 -87 30 -108 6 -22 9 -42 5 -45 -17 -17 -233 134 -322 226 -48
49 -48 50 -63 242 -13 181 -33 967 -24 982 9 14 20 -12 45 -107z m4209 -834
c0 -18 -37 -125 -64 -186 -8 -16 -23 -51 -35 -77 -12 -26 -21 -51 -21 -55 0
-19 -60 -96 -91 -117 -52 -35 -312 -129 -599 -216 -58 -17 -123 -38 -145 -45
-22 -8 -66 -21 -97 -30 -32 -8 -84 -22 -115 -30 -32 -9 -67 -20 -78 -25 -11
-5 -47 -16 -80 -25 -33 -9 -89 -25 -125 -35 -36 -10 -132 -37 -215 -60 -82
-23 -181 -50 -220 -61 -76 -22 -122 -34 -385 -105 -432 -115 -640 -159 -723
-151 -35 3 -56 12 -78 33 -39 37 -56 66 -37 63 47 -6 50 -1 25 43 -38 69 -40
80 -16 73 12 -4 40 -20 63 -35 22 -16 44 -26 47 -24 4 2 -6 29 -22 60 -16 31
-26 61 -23 65 14 23 62 4 170 -67 28 -19 54 -34 58 -34 4 0 5 18 1 40 -5 31
-3 41 8 46 13 5 11 11 -9 42 -46 67 -12 79 82 28 35 -20 67 -36 69 -36 3 0 5
16 5 36 l0 35 63 -43 c34 -24 65 -47 69 -53 4 -5 10 -7 13 -3 6 6 -17 48 -40
74 -5 7 -17 20 -25 30 -8 11 -37 45 -63 77 -26 33 -47 65 -47 72 0 17 59 30
90 20 33 -11 56 -30 167 -145 65 -66 103 -99 103 -87 0 9 -4 17 -8 17 -5 0
-15 15 -24 33 -8 18 -41 66 -72 107 -31 42 -55 83 -54 94 4 28 204 96 283 96
51 0 63 -9 90 -60 10 -19 27 -46 38 -60 l20 -25 -6 25 c-3 14 -9 55 -13 92 -6
59 -5 68 11 74 28 11 46 -16 130 -199 14 -33 28 -57 30 -55 4 3 -20 176 -30
216 -3 12 1 35 9 51 16 29 53 47 156 75 30 8 129 35 220 61 202 58 268 71 280
59 5 -5 14 -40 19 -79 16 -100 33 -160 41 -143 4 7 11 54 15 103 9 115 23 149
72 173 83 42 324 99 365 87 19 -7 20 -12 14 -84 -4 -42 -9 -93 -12 -113 -3
-21 -2 -38 3 -38 12 0 26 28 58 115 37 101 74 173 92 180 14 5 15 -5 10 -82
-4 -49 -11 -104 -17 -123 -15 -51 6 -63 25 -14 9 21 20 48 25 59 5 11 21 49
36 85 46 110 42 108 344 184 30 7 81 14 113 15 50 1 57 -1 57 -18z m-20 -539
c17 -16 128 -161 170 -222 22 -32 182 -256 232 -324 158 -216 158 -216 158
-262 0 -51 -32 -139 -63 -172 -33 -35 -90 -58 -297 -122 -58 -17 -114 -36
-125 -40 -38 -16 -273 -89 -353 -110 -93 -23 -120 -25 -159 -8 -26 11 -153 92
-199 127 -12 9 -32 23 -44 31 -169 114 -243 184 -265 251 -23 68 -10 94 51
103 49 6 162 43 179 58 14 12 63 10 67 -4 10 -30 -6 -57 -43 -74 l-39 -19 6
-52 c7 -59 5 -60 -59 -42 -22 6 -41 8 -44 6 -8 -9 81 -91 118 -109 54 -26 134
-48 179 -48 51 0 179 34 234 62 68 35 178 113 230 164 56 55 115 142 119 176
6 55 -44 24 -205 -126 -42 -39 -93 -83 -114 -99 -37 -27 -111 -53 -121 -43
-13 13 11 57 59 107 76 79 140 151 163 183 11 15 29 39 39 53 30 39 55 92 77
158 24 76 24 86 -2 119 -16 20 -29 26 -59 26 -21 0 -41 -3 -43 -7 -3 -5 1 -31
9 -60 21 -80 -1 -128 -118 -265 -80 -92 -138 -147 -189 -175 -70 -40 -69 -42
-69 131 0 135 -3 162 -24 227 -13 41 -31 88 -40 104 -17 32 -21 73 -8 91 14
20 105 64 163 79 63 17 61 17 143 -33 26 -16 150 -12 168 6 9 9 4 21 -22 53
-39 48 -35 61 26 96 47 28 88 29 114 5z m-1060 -824 c4 -102 8 -119 27 -140
24 -26 155 -122 308 -228 156 -108 203 -142 250 -183 38 -33 127 -165 205
-302 66 -117 208 -334 231 -355 3 -3 21 -27 40 -55 18 -27 37 -52 40 -55 3 -3
22 -29 42 -59 45 -66 47 -99 7 -196 -4 -11 -15 -41 -24 -67 -13 -35 -25 -50
-52 -63 -36 -17 -227 -87 -304 -111 -25 -8 -54 -18 -65 -23 -11 -5 -45 -17
-75 -26 -30 -9 -64 -20 -75 -25 -23 -10 -98 -36 -230 -81 -49 -17 -99 -35
-110 -39 -35 -16 -199 -68 -235 -75 -32 -6 -45 0 -125 55 -132 90 -189 129
-200 138 -5 4 -25 17 -42 27 -18 11 -33 23 -33 26 0 4 -9 11 -20 14 -11 3 -26
12 -32 18 -7 7 -35 27 -63 45 -57 37 -48 31 -180 122 -55 38 -105 73 -111 78
-5 5 -21 15 -35 22 -13 7 -26 16 -29 19 -3 3 -32 24 -65 46 -33 22 -64 43 -70
48 -5 4 -41 31 -79 59 -71 54 -90 84 -123 191 -13 45 -13 51 6 90 21 43 112
193 131 214 5 7 10 14 10 16 0 5 60 108 80 137 37 55 70 112 70 120 0 6 4 10
9 10 5 0 12 8 15 18 6 17 126 207 144 228 5 5 15 20 21 32 10 18 21 22 59 22
47 0 109 -13 147 -30 48 -22 414 -115 422 -107 4 4 -11 25 -34 46 -32 31 -41
48 -46 86 -8 58 -7 228 2 310 l6 60 55 22 c30 13 71 22 90 20 l35 -2 5 -117z"/>
<path d="M5243 8927 c-64 -21 -72 -32 -57 -71 13 -35 204 -4 204 32 -1 48 -12
62 -49 61 -20 -1 -64 -11 -98 -22z"/>
<path d="M5376 8645 c-98 -29 -108 -39 -89 -84 14 -33 15 -34 66 -28 29 3 79
14 112 25 64 21 68 28 46 85 -13 33 -30 34 -135 2z"/>
<path d="M6075 7643 c-62 -6 -161 -21 -270 -42 -235 -44 -272 -52 -305 -61
-19 -5 -54 -14 -77 -20 -35 -9 -47 -18 -62 -48 -30 -59 -81 -73 -291 -82 -150
-6 -182 -10 -225 -29 -81 -36 -106 -47 -180 -76 -117 -46 -214 -95 -224 -113
-6 -11 -4 -31 4 -57 8 -22 19 -59 25 -83 16 -62 34 -67 182 -53 68 7 152 17
188 23 164 26 163 26 214 78 33 34 63 54 99 66 29 9 90 32 136 51 106 43 143
42 152 -5 4 -18 9 -36 13 -39 3 -3 29 0 58 6 172 39 282 62 508 106 104 20
170 43 241 86 52 30 59 32 164 33 l110 1 3 34 c4 35 -29 148 -53 187 -12 19
-26 22 -162 28 -81 3 -161 8 -178 10 -16 2 -48 2 -70 -1z"/>
<path d="M6306 7133 c-10 -3 -39 -17 -65 -32 -60 -36 -165 -71 -212 -71 -40 0
-51 14 -42 49 5 18 1 21 -30 21 -20 0 -56 -6 -79 -14 -36 -12 -147 -43 -308
-86 -34 -9 -170 -41 -315 -73 -38 -9 -99 -21 -135 -28 -81 -15 -85 -17 -193
-97 -89 -65 -116 -77 -254 -108 -69 -15 -103 -32 -103 -51 0 -28 43 -169 55
-182 20 -20 80 -15 174 14 72 23 99 26 218 26 76 -1 151 3 168 9 16 5 57 16
90 24 127 31 331 87 345 95 9 5 31 12 50 16 19 3 62 15 95 25 33 10 87 26 120
36 106 30 154 55 157 84 2 17 11 27 28 31 128 35 194 37 245 9 50 -28 102 -25
180 11 11 5 47 15 81 23 70 16 104 32 104 49 0 7 -7 51 -17 99 -24 129 -23
128 -196 127 -78 -1 -150 -3 -161 -6z"/>
<path d="M3930 7053 c-8 -2 -24 -9 -35 -14 -11 -5 -47 -15 -80 -23 -144 -36
-191 -49 -204 -62 -12 -11 -11 -24 2 -91 9 -43 25 -114 37 -158 12 -44 30
-111 40 -150 10 -38 46 -171 80 -295 34 -124 70 -256 80 -295 11 -38 29 -104
40 -145 12 -41 33 -118 46 -170 37 -142 60 -227 84 -310 11 -41 30 -109 41
-150 38 -142 47 -175 74 -270 14 -52 35 -126 45 -165 17 -65 37 -136 88 -320
30 -105 51 -159 68 -171 15 -12 67 -5 124 15 14 5 79 26 145 46 149 46 162 56
147 122 -13 59 -44 174 -72 273 -12 41 -30 107 -40 145 -11 39 -28 103 -39
143 -40 139 -62 218 -86 307 -24 91 -48 176 -85 305 -11 39 -29 102 -40 140
-50 174 -62 219 -76 275 -8 33 -17 67 -21 75 -3 8 -14 44 -24 80 -27 102 -61
221 -129 460 -11 39 -29 102 -40 140 -11 39 -29 100 -39 138 -35 123 -41 132
-81 131 -19 0 -42 -3 -50 -6z"/>
<path d="M6165 6523 c-85 -19 -403 -99 -455 -115 -127 -38 -164 -58 -168 -88
-2 -22 16 -93 88 -342 11 -38 29 -98 39 -135 11 -38 29 -99 41 -138 21 -67 50
-172 85 -300 9 -33 20 -69 25 -80 5 -11 16 -47 25 -80 9 -33 25 -89 35 -125
10 -36 26 -92 35 -125 9 -33 20 -69 25 -80 5 -11 16 -45 24 -75 50 -188 56
-200 95 -200 16 0 55 8 87 19 33 10 75 22 94 26 19 4 40 11 45 15 6 4 35 13
65 20 30 7 60 16 65 20 6 4 35 13 65 20 30 7 60 16 65 20 6 4 35 13 65 20 30
7 62 17 70 22 8 4 27 12 43 18 23 8 27 15 27 48 0 21 -9 68 -19 103 -11 35
-31 105 -46 154 -45 152 -77 258 -90 300 -18 53 -53 172 -61 210 -4 17 -10 35
-14 40 -4 6 -13 35 -20 65 -7 30 -16 60 -20 65 -4 6 -13 35 -20 65 -7 30 -16
60 -20 65 -4 6 -13 35 -20 65 -7 30 -16 60 -20 65 -4 6 -14 40 -24 77 -24 99
-97 320 -114 346 -14 22 -45 27 -97 15z m-6 -189 c64 -25 107 -102 141 -247
37 -160 22 -286 -41 -344 -60 -55 -207 -95 -291 -79 -68 13 -143 107 -187 233
-28 84 -53 231 -45 268 17 79 74 138 159 164 77 24 210 27 264 5z m199 -824
c109 -28 188 -191 209 -427 11 -133 -77 -231 -240 -265 -48 -10 -64 -9 -112 6
-122 38 -168 117 -216 370 -15 80 -17 106 -7 137 13 46 69 109 121 138 45 25
165 61 187 56 8 -2 34 -9 58 -15z"/>
<path d="M6775 4290 c-397 -107 -505 -139 -519 -151 -5 -4 -2 -28 7 -56 8 -26
20 -68 27 -93 6 -25 15 -54 20 -65 9 -20 22 -65 61 -215 11 -41 23 -82 28 -90
4 -8 13 -37 20 -65 7 -27 18 -58 26 -69 16 -21 -17 -28 300 59 94 26 196 54
227 62 65 17 74 31 59 89 -5 22 -21 84 -35 139 -30 124 -112 424 -121 448 -8
18 -46 21 -100 7z"/>
<path d="M4857 4164 c-3 -4 -41 -15 -84 -26 -114 -29 -206 -54 -223 -60 -16
-6 -100 -28 -210 -55 -36 -8 -69 -19 -75 -23 -5 -4 -33 -13 -60 -19 -28 -7
-64 -22 -79 -35 -35 -28 -37 -16 53 -371 11 -44 31 -125 44 -180 89 -358 120
-461 146 -474 15 -8 181 28 226 49 11 5 47 16 80 24 56 13 224 60 325 91 25 7
65 18 90 25 25 6 64 19 87 28 38 15 43 21 43 49 0 18 -6 52 -14 75 -8 24 -22
70 -31 103 -18 67 -44 159 -105 380 -23 83 -50 182 -60 220 -38 143 -49 176
-60 191 -12 14 -81 20 -93 8z"/>
<path d="M6015 4100 c-38 -10 -101 -27 -140 -38 -38 -12 -97 -28 -130 -37 -33
-9 -69 -20 -80 -25 -11 -5 -47 -16 -80 -25 -33 -9 -98 -27 -145 -40 -47 -13
-112 -31 -145 -40 -132 -36 -138 -44 -109 -145 9 -30 24 -84 33 -120 10 -36
20 -72 24 -80 3 -8 13 -42 21 -75 20 -82 62 -234 75 -267 6 -16 16 -28 23 -28
13 0 241 61 383 102 39 11 99 28 135 37 36 10 72 20 80 24 8 3 41 13 73 22
132 35 169 46 212 65 25 11 45 25 45 32 -1 15 -10 51 -39 153 -11 39 -38 138
-61 220 -23 83 -48 175 -57 205 -14 53 -29 81 -42 79 -3 0 -37 -9 -76 -19z"/>
<path d="M3375 2967 c-4 -10 -5 -82 -1 -160 3 -78 9 -257 12 -397 l6 -255 -28
-12 c-99 -39 -140 -39 -181 -1 -23 22 -44 24 -110 13 -46 -8 -48 -7 -163 121
-56 61 -199 219 -262 288 -68 74 -73 64 -73 -137 0 -100 4 -163 10 -164 6 -2
22 19 36 45 15 26 35 48 45 50 35 5 296 -215 315 -266 7 -19 3 -35 -22 -79
l-32 -55 31 -62 c40 -81 63 -134 98 -231 35 -99 48 -115 94 -115 51 1 110 16
128 34 13 13 14 23 4 66 -7 28 -21 71 -32 95 -11 24 -20 47 -20 50 0 3 -9 25
-19 48 -50 110 -51 114 -33 130 10 8 53 20 97 27 83 12 178 35 195 45 12 8 12
110 0 235 -24 243 -76 674 -84 695 -2 6 -7 2 -11 -8z"/>
<path d="M2322 2103 c-32 -41 -181 -340 -276 -555 -9 -20 -16 -55 -16 -77 0
-39 6 -47 93 -134 50 -52 139 -136 196 -188 57 -52 116 -105 131 -119 14 -14
71 -65 125 -115 55 -49 126 -115 158 -145 71 -66 113 -95 121 -81 4 5 2 78 -4
163 -41 601 -50 725 -60 822 -6 61 -18 122 -25 137 -12 23 -39 51 -115 119
-63 57 -270 210 -284 210 -8 0 -28 -17 -44 -37z"/>
<path d="M6500 1821 c0 -61 -3 -72 -21 -82 -18 -9 -20 -17 -15 -52 4 -23 10
-46 15 -52 14 -19 51 -133 62 -191 11 -60 28 -123 56 -204 18 -53 80 -216 92
-245 5 -11 19 -42 31 -70 85 -196 177 -351 196 -333 8 8 -13 116 -26 133 -4 6
-10 23 -14 40 -4 16 -16 48 -27 72 -10 23 -19 45 -19 48 0 4 -6 21 -14 38 -8
18 -38 88 -66 157 -28 69 -55 134 -60 145 -26 55 -70 178 -70 193 0 10 7 27
15 38 26 34 18 89 -32 234 -24 69 -80 187 -92 194 -8 5 -11 -15 -11 -63z"/>
<path d="M5794 1778 c-32 -35 -134 -192 -134 -207 0 -5 -4 -11 -8 -13 -5 -1
-26 -34 -48 -71 -21 -38 -47 -82 -56 -98 -75 -123 -134 -239 -143 -277 -4 -22
-1 -41 11 -62 10 -16 21 -30 24 -30 3 0 18 -11 34 -25 16 -14 33 -25 37 -25 4
0 14 -6 21 -13 7 -7 76 -55 153 -106 186 -125 183 -124 235 -157 25 -16 50
-32 55 -37 6 -4 33 -22 60 -40 28 -17 55 -35 60 -40 32 -26 151 -107 157 -107
20 0 18 28 -42 550 -58 504 -69 585 -84 622 -4 9 -26 29 -49 44 -23 15 -53 35
-67 44 -66 43 -140 80 -162 80 -14 0 -36 -13 -54 -32z"/>
</g>
</svg>
