<?xml version="1.0" standalone="no"?>
<!DOCTYPE svg PUBLIC "-//W3C//DTD SVG 20010904//EN"
 "http://www.w3.org/TR/2001/REC-SVG-20010904/DTD/svg10.dtd">
<svg version="1.0" xmlns="http://www.w3.org/2000/svg"
 width="32" height="32" viewBox="0 0 2400.000000 2400.000000"
 preserveAspectRatio="xMidYMid meet">

<g transform="translate(0.000000,2400.000000) scale(0.100000,-0.100000)"
fill="#000000" stroke="none">
<path d="M11893 23982 c-63 -23 -127 -66 -158 -107 -13 -16 -164 -257 -336
-535 -171 -278 -313 -506 -314 -508 -2 -2 -69 -10 -151 -18 -120 -12 -150 -12
-159 -2 -7 7 -196 211 -422 453 -440 473 -452 483 -569 504 -142 26 -300 -51
-362 -176 -10 -21 -112 -288 -226 -594 l-208 -556 -142 -42 -143 -43 -324 233
c-178 128 -404 290 -502 361 -203 146 -244 164 -361 156 -45 -3 -89 -14 -121
-29 -71 -33 -147 -113 -172 -179 -12 -32 -61 -303 -118 -650 -53 -327 -98
-595 -98 -596 -1 0 -57 -31 -125 -67 -68 -37 -129 -67 -135 -67 -7 0 -253 110
-547 243 -294 134 -553 250 -575 257 -133 44 -304 -16 -384 -136 -65 -99 -65
-102 -47 -633 9 -262 19 -539 22 -616 l6 -140 -110 -92 c-61 -51 -117 -93
-125 -93 -7 0 -271 61 -587 136 -649 153 -672 157 -777 109 -76 -33 -144 -102
-179 -179 -48 -106 -45 -127 109 -777 75 -317 137 -581 137 -587 0 -7 -42 -62
-92 -123 l-93 -112 -145 7 c-80 3 -357 13 -616 22 -526 18 -529 18 -628 -47
-120 -80 -181 -250 -136 -384 7 -22 123 -281 256 -574 134 -294 244 -540 244
-546 0 -8 -117 -235 -135 -262 0 -1 -268 -46 -595 -99 -346 -56 -618 -105
-650 -117 -66 -24 -145 -100 -180 -172 -21 -42 -25 -65 -25 -145 0 -82 4 -102
25 -145 14 -28 182 -267 374 -533 l348 -483 -43 -144 -42 -143 -556 -208
c-306 -113 -575 -218 -599 -231 -125 -71 -197 -221 -171 -356 22 -121 27 -126
502 -569 243 -226 448 -416 455 -423 10 -9 10 -39 -2 -159 -8 -82 -16 -149
-18 -151 -2 -1 -232 -143 -512 -316 -300 -184 -528 -332 -554 -357 -24 -24
-56 -69 -70 -100 -23 -48 -27 -71 -27 -142 0 -76 4 -93 33 -152 19 -38 50 -81
72 -100 21 -19 267 -175 547 -348 279 -172 509 -314 511 -316 2 -1 10 -69 18
-150 l15 -149 -33 -29 c-18 -17 -223 -207 -455 -423 -455 -425 -460 -431 -483
-553 -23 -126 37 -266 144 -337 28 -18 282 -119 614 -243 l568 -212 43 -143
43 -144 -348 -483 c-191 -266 -359 -505 -373 -533 -23 -43 -26 -61 -26 -145 0
-84 3 -102 28 -152 35 -71 110 -140 181 -167 31 -11 306 -61 647 -116 327 -53
595 -100 597 -103 1 -4 32 -61 68 -127 38 -70 63 -128 61 -140 -2 -11 -115
-263 -250 -560 -157 -344 -251 -560 -257 -595 -35 -192 114 -382 312 -397 35
-3 324 5 642 16 470 17 582 19 592 9 44 -46 174 -213 174 -222 0 -7 -61 -270
-136 -586 -156 -656 -158 -673 -107 -781 34 -72 97 -140 158 -169 54 -26 149
-43 194 -35 20 3 293 67 608 141 314 74 576 134 581 134 8 0 179 -135 220
-174 11 -11 9 -122 -9 -628 -20 -566 -20 -619 -6 -669 60 -203 268 -304 467
-226 36 14 292 129 570 256 277 127 509 231 515 231 6 0 65 -29 131 -65 65
-36 122 -66 126 -67 3 -2 50 -271 103 -598 54 -327 106 -618 117 -647 59 -159
249 -249 421 -199 59 17 41 4 735 505 l324 233 143 -43 143 -42 207 -556 c115
-306 215 -569 223 -586 62 -128 225 -211 362 -185 123 23 128 27 567 498 225
240 415 444 423 455 15 18 21 18 164 3 82 -9 150 -17 151 -19 1 -1 143 -231
316 -511 185 -300 332 -528 357 -554 24 -24 69 -56 100 -70 48 -23 71 -27 142
-27 76 0 93 4 152 33 39 19 81 49 101 73 19 21 175 267 347 544 171 278 316
508 321 511 5 3 73 12 151 20 l143 15 29 -33 c17 -18 207 -223 423 -455 425
-455 431 -460 553 -483 126 -23 266 37 337 144 18 27 119 282 243 614 l212
568 143 43 144 43 498 -358 c553 -398 554 -399 684 -392 136 8 252 90 298 212
14 39 211 1184 211 1233 0 5 60 39 134 78 l133 69 554 -252 c614 -279 631
-285 740 -257 35 8 82 27 105 40 86 50 152 158 161 263 3 31 -5 320 -16 641
-18 475 -19 587 -9 597 45 42 212 174 222 174 6 0 267 -60 581 -134 313 -74
586 -137 606 -141 45 -8 140 9 194 35 53 26 126 98 153 154 28 55 46 149 37
195 -4 20 -67 293 -141 607 -74 314 -134 576 -134 582 0 8 134 178 174 220 10
10 122 8 592 -9 318 -11 607 -19 642 -16 199 15 348 205 312 397 -6 34 -107
268 -262 609 l-252 554 69 133 c39 74 73 134 78 134 23 0 1177 191 1205 199
87 26 176 104 216 190 17 37 21 65 21 141 0 83 -3 101 -26 145 -14 28 -165
244 -336 480 -170 237 -327 454 -347 483 l-38 53 43 143 43 143 545 203 c300
112 568 215 594 228 133 65 213 222 186 365 -22 119 -28 126 -489 556 -236
221 -441 411 -455 424 l-26 22 15 149 c8 81 16 149 18 150 2 2 231 143 510
315 279 173 525 329 547 348 24 20 54 62 73 101 30 60 33 75 33 152 -1 103
-29 175 -97 242 -26 25 -254 172 -554 357 -280 173 -510 315 -511 316 -8 5
-33 299 -26 305 4 4 209 194 455 423 482 450 485 454 508 577 23 126 -36 264
-143 335 -34 22 -249 108 -616 245 -311 116 -566 212 -566 213 -1 1 -21 66
-45 144 l-42 141 348 484 c192 265 360 505 374 533 21 43 25 64 25 145 0 85
-3 101 -30 153 -36 72 -109 139 -178 165 -29 11 -194 43 -367 71 -173 28 -441
72 -595 97 l-281 46 -64 122 c-36 66 -66 128 -68 136 -1 8 99 238 224 510 286
626 287 628 287 710 1 160 -97 291 -252 337 -49 14 -104 13 -669 -7 -508 -18
-617 -19 -627 -8 -41 43 -175 212 -175 221 0 6 62 269 137 586 156 657 158
672 106 782 -38 81 -91 134 -171 171 -109 52 -126 50 -780 -106 -316 -75 -579
-136 -587 -136 -10 0 -173 127 -223 174 -10 10 -8 122 9 592 11 318 19 607 16
640 -10 129 -98 250 -215 295 -68 25 -178 28 -237 6 -22 -8 -278 -123 -568
-256 -291 -132 -534 -241 -541 -241 -7 0 -66 29 -132 65 -65 36 -122 66 -125
67 -4 2 -50 269 -103 593 -53 325 -100 605 -106 623 -24 87 -103 176 -189 216
-37 17 -65 21 -141 21 -83 0 -101 -3 -145 -26 -27 -14 -267 -182 -533 -374
l-483 -347 -144 43 -143 43 -212 568 c-124 332 -224 586 -243 614 -71 107
-212 168 -337 144 -123 -23 -129 -28 -553 -483 -216 -232 -406 -437 -423 -455
l-29 -33 -149 15 c-81 8 -149 16 -150 18 -1 2 -143 231 -316 510 -172 279
-328 526 -347 547 -78 92 -244 134 -360 93z m250 -2128 c245 -63 444 -264 508
-512 27 -105 26 -262 -2 -362 -34 -124 -93 -224 -184 -315 -91 -92 -175 -144
-290 -182 -68 -22 -98 -26 -205 -27 -92 0 -142 4 -189 17 -198 56 -370 198
-459 381 -96 197 -94 420 5 626 39 82 58 107 137 185 119 118 215 170 371 201
83 16 220 11 308 -12z m-1208 -1743 c306 -321 574 -599 596 -617 55 -46 132
-88 214 -115 59 -20 90 -24 195 -24 110 0 134 3 205 28 150 51 82 -10 1432
1280 l42 40 138 -27 c168 -34 489 -113 678 -167 1448 -417 2772 -1209 3835
-2296 484 -494 913 -1050 1265 -1638 78 -130 86 -148 77 -172 -5 -16 -197
-451 -427 -968 -267 -603 -424 -969 -437 -1020 -40 -157 -11 -351 76 -493 44
-73 138 -167 210 -211 31 -18 424 -197 873 -396 723 -321 818 -365 824 -387 4
-14 13 -104 20 -199 16 -195 20 -1117 6 -1231 l-8 -67 -472 -3 c-513 -3 -502
-2 -534 -61 -16 -28 -19 -75 -24 -397 -6 -382 -13 -455 -60 -615 -89 -302
-279 -517 -559 -632 -201 -84 -487 -121 -695 -92 -318 44 -622 211 -708 389
-17 36 -40 127 -67 260 -130 654 -306 1103 -573 1460 -140 186 -407 439 -719
680 -53 41 -97 78 -97 81 -1 3 25 22 57 42 107 66 375 257 497 355 728 581
1130 1183 1220 1827 20 143 20 425 0 580 -76 583 -336 1088 -794 1546 -280
279 -577 492 -931 669 -376 188 -733 302 -1200 383 l-125 22 -4749 5 -4749 5
140 150 c1145 1225 2652 2108 4283 2510 229 56 450 104 472 102 9 -1 267 -265
573 -586z m-7305 -4707 c36 -8 101 -32 145 -54 242 -118 395 -364 395 -634 0
-125 -21 -214 -76 -326 -39 -79 -62 -110 -133 -180 -72 -72 -102 -94 -181
-132 -126 -62 -222 -82 -354 -75 -645 32 -916 839 -422 1255 174 147 393 198
626 146z m16999 -34 c134 -32 231 -88 336 -194 73 -73 99 -108 133 -176 54
-111 75 -200 75 -325 0 -124 -18 -200 -79 -323 -127 -259 -428 -421 -710 -383
-278 39 -502 216 -589 468 -83 236 -44 476 109 680 98 130 280 238 446 266 70
12 201 6 279 -13z m-14561 -2897 l2 -2803 -1254 0 -1254 0 -11 33 c-25 77 -84
318 -126 510 -80 372 -134 736 -171 1142 -21 239 -30 946 -15 1200 17 293 32
449 45 462 6 6 358 165 781 353 424 188 794 356 824 373 72 43 168 141 214
218 62 105 90 206 90 329 1 67 -5 127 -15 165 -9 33 -91 229 -182 435 -91 205
-166 378 -166 382 0 5 278 7 618 6 l617 -3 3 -2802z m7084 2720 c316 -78 546
-198 707 -368 89 -95 150 -205 177 -320 22 -98 15 -276 -16 -362 -117 -331
-533 -539 -1145 -574 -110 -6 -702 -9 -1520 -7 l-1340 3 -3 815 c-1 448 0 821
3 828 4 10 298 12 1527 9 1521 -3 1523 -3 1610 -24z m-600 -4031 c442 -101
764 -354 968 -762 110 -219 150 -364 285 -1030 204 -1006 262 -1225 390 -1485
196 -397 528 -770 820 -922 44 -23 114 -52 155 -65 l75 -23 1911 0 1911 0 -88
-115 c-197 -257 -442 -544 -627 -734 l-97 -98 -755 162 c-415 89 -786 166
-823 171 -275 35 -568 -145 -668 -410 -11 -31 -103 -440 -204 -910 -112 -522
-189 -857 -197 -862 -7 -5 -92 -42 -188 -83 -2048 -875 -4433 -922 -6520 -129
-173 66 -563 230 -584 247 -10 7 -77 301 -199 873 -202 940 -204 947 -298
1065 -132 165 -336 258 -538 245 -56 -3 -344 -61 -831 -166 l-745 -160 -29 27
c-120 113 -467 515 -644 747 l-92 120 3629 5 c3551 5 3629 5 3650 24 l21 19 0
1312 0 1312 -21 19 c-20 18 -55 19 -1115 22 l-1094 2 0 805 0 806 1223 -4
c1220 -3 1222 -3 1319 -25z m-5698 -5802 c228 -58 431 -244 499 -458 36 -110
38 -123 38 -233 0 -116 -19 -205 -65 -302 -69 -150 -183 -265 -331 -337 -93
-45 -141 -59 -239 -69 -334 -36 -645 169 -754 497 -22 66 -26 96 -26 202 -1
186 45 322 152 456 171 212 465 311 726 244z m10507 -25 c348 -60 589 -347
589 -700 0 -200 -67 -362 -205 -500 -92 -92 -176 -144 -290 -182 -68 -22 -98
-26 -205 -27 -143 -1 -213 14 -325 70 -349 173 -493 598 -320 949 104 212 282
348 510 390 94 18 147 18 246 0z"/>
</g>
</svg>
